
<svg width="100" height="100" viewBox="0 0 100 100" fill="none" xmlns="http://www.w3.org/2000/svg">
  <path d="M50 5C69.33 5 85 20.67 85 40C85 51.7 77.22 62.37 66 66.92V75C66 77.76 63.76 80 61 80H39C36.24 80 34 77.76 34 75V66.92C22.78 62.37 15 51.7 15 40C15 20.67 30.67 5 50 5Z" fill="#7C3AED"/>
  <path d="M44 30C44 28.9 44.9 28 46 28H54C55.1 28 56 28.9 56 30V50C56 51.1 55.1 52 54 52H46C44.9 52 44 51.1 44 50V30ZM50 60C52.21 60 54 58.21 54 56H46C46 58.21 47.79 60 50 60Z" fill="white"/>
  <rect x="35" y="85" width="30" height="5" rx="2.5" fill="#7C3AED"/>
  <rect x="42" y="92" width="16" height="5" rx="2.5" fill="#7C3AED"/>
</svg>
